# AST/ASF file generated using VICON BodyLanguage
# -----------------------------------------------
:version 1.10
:name VICON
:units
  mass 1.0
  length 0.45
  angle deg
:documentation
   .ast/.asf automatically generated from VICON data using
   VICON BodyBuilder and BodyLanguage model FoxedUp or BRILLIANT.MOD
:root
   order TX TY TZ RX RY RZ
   axis XYZ
   position 0 0 0  
   orientation 0 0 0 
:bonedata
  begin
     id 1 
     name lhipjoint
     direction 0.645422 -0.672597 0.361999 
     length 2.39934 
     axis 0 0 0  XYZ
  end
  begin
     id 2 
     name lfemur
     direction 0.34202 -0.939693 0  
     length 6.58112  
     axis 0 0 20  XYZ
    dof rx ry rz
    limits (-160.0 20.0)
           (-70.0 70.0)
           (-60.0 70.0)
  end
  begin
     id 3 
     name ltibia
     direction 0.34202 -0.939693 0   
     length 7.02673   
     axis 0 0 20   XYZ
    dof rx
    limits (-10.0 170.0)
  end
  begin
     id 4 
     name lfoot
     direction 0.0835106 -0.229444 0.969733   
     length 2.08772   
     axis -90 7.62852e-016 20   XYZ
    dof rx rz
    limits (-45.0 90.0)
           (-70.0 20.0)
  end
  begin
     id 5 
     name ltoes
     direction 1.5358e-011 -4.21925e-011 1   
     length 1.04844   
     axis -90 7.62852e-016 20   XYZ
    dof rx
    limits (-90.0 20.0)
  end
  begin
     id 6 
     name rhipjoint
     direction -0.644959 -0.672941 0.362185   
     length 2.39812  
     axis 0 0 0  XYZ 
  end
  begin
     id 7 
     name rfemur
     direction -0.34202 -0.939693 0   
     length 6.67015   
     axis 0 0 -20   XYZ
    dof rx ry rz
    limits (-160.0 20.0)
           (-70.0 70.0)
           (-70.0 60.0)
  end
  begin
     id 8 
     name rtibia
     direction -0.34202 -0.939693 0   
     length 7.35735   
     axis 0 0 -20   XYZ
    dof rx
    limits (-10.0 170.0)
 end
 begin
     id 9 
     name rfoot
     direction -0.0670769 -0.184292 0.98058   
     length 2.25469  
     axis -90 -7.62852e-016 -20   XYZ
    dof rx rz
    limits (-45.0 90.0)
           (-20.0 70.0)
  end
  begin
     id 10 
     name rtoes
     direction -1.53575e-011 -4.21908e-011 1   
     length 1.13399   
     axis -90 -7.62852e-016 -20   XYZ
    dof rx
    limits (-90.0 20.0)
  end
  begin
     id 11 
     name lowerback
     direction -0.0188328 0.993434 -0.112847   
     length 2.27656   
     axis 0 0 0   XYZ
    dof rx ry rz
    limits (-20.0 45.0)
           (-30.0 30.0)
           (-30.0 30.0)
  end
  begin
     id 12 
     name upperback
     direction 0.00983139 0.998968 -0.04435   
     length 2.28631   
     axis 0 0 0   XYZ
    dof rx ry rz
    limits (-20.0 45.0)
           (-30.0 30.0)
           (-30.0 30.0)
  end
  begin
     id 13 
     name thorax
     direction 0.0177718 0.999807 0.00833073   
     length 2.30999   
     axis 0 0 0   XYZ
    dof rx ry rz
    limits (-20.0 45.0)
           (-30.0 30.0)
           (-30.0 30.0)
  end
  begin
     id 14 
     name lowerneck
     direction -0.0835025 0.993181 0.0813558   
     length 1.39447   
     axis 0 0 0   XYZ
    dof rx ry rz
    limits (-20.0 45.0)
           (-30.0 30.0)
           (-30.0 30.0)
  end
  begin
     id 15 
     name upperneck
     direction 0.210059 0.976535 0.0474817   
     length 1.39882   
     axis 0 0 0   XYZ
    dof rx ry rz
    limits (-20.0 45.0)
           (-30.0 30.0)
           (-30.0 30.0)
  end
  begin
     id 16
     name head
     direction 0.0780891 0.996944 -0.00207154  
     length 1.41828  
     axis 0 0 0   XYZ
    dof rx ry rz
    limits (-20.0 45.0)
           (-30.0 30.0)
           (-30.0 30.0)
  end
  begin
     id 17 
     name lclavicle
     direction 0.982414 0.166355 -0.0847829  
     length 3.57922  
     axis 0 0 0   XYZ
    dof ry rz
    limits (-20.0 10.0)
           (0.0 20.0)
  end
  begin
     id 18 
     name lhumerus
     direction 1 -4.48975e-011 5.47647e-028   
     length 4.76405   
     axis -180 -30 -90   XYZ
    dof rx ry rz
    limits (-60.0 90.0)
           (-90.0 90.0)
           (-90.0 90.0)
  end
  begin
     id 19
     name lradius
     direction 1 -4.48949e-011 -8.32142e-027   
     length 3.13759   
     axis -180 -30 -90   XYZ
    dof rx
    limits (-10.0 170.0)
  end
  begin
     id 20
     name lwrist
     direction 1 -4.48978e-011 -1.32705e-026   
     length 1.56879   
     axis 9.60836e-015 90 90   XYZ
    dof ry
    limits (-180.0 0.0)
 end
  begin
     id 21 
     name lhand
     direction 1 -4.48975e-011 -2.65409e-026   
     length 0.732262   
     axis 1.69354e-014 90 90   XYZ
    dof rx rz
    limits (-90.0 90.0)
           (-45.0 45.0)
  end
  begin
     id 22 
     name lfingers
     direction 1 -4.48923e-011 -5.30819e-026   
     length 0.590368   
     axis 3.38708e-014 90 90   XYZ
    dof rx
    limits (0.0 90.0)
  end
  begin
     id 23
     name lthumb
     direction 0.707107 -6.34914e-011 0.707107   
     length 0.847654   
     axis -90 45 2.85299e-015   XYZ
    dof rx rz
    limits (-45.0 45.0)
           (-45.0 45.0)
  end
  begin
     id 24 
     name rclavicle
     direction -0.963658 0.245183 -0.106063   
     length 3.43472  
     axis 0 0 0   XYZ 
    dof ry rz
    limits (-10.0 20.0)
           (-20.0 0.0)
  end
  begin
     id 25 
     name rhumerus
     direction -1 -4.48963e-011 -1.64784e-027  
     length 5.10161   
     axis -180 30 90   XYZ
    dof rx ry rz
    limits (-90.0 60.0)
           (-90.0 90.0)
           (-90.0 90.0)
  end
  begin
     id 26 
     name rradius
     direction -1 -4.48969e-011 -2.87943e-027   
     length 3.23267   
     axis -180 30 90   XYZ
    dof rx
    limits (-10.0 170.0)
  end
  begin
     id 27 
     name rwrist
     direction -1 -4.48982e-011 -1.32705e-026   
     length 1.61633   
     axis 9.60836e-015 -90 -90   XYZ
    dof ry
    limits (-180.0 0.0)
  end
  begin
     id 28
     name rhand
     direction -1 -4.48963e-011 -2.65409e-026   
     length 0.702   
     axis 1.69354e-014 -90 -90   XYZ
    dof rx rz
    limits (-90.0 90.0)
           (-45.0 45.0)
  end
  begin
     id 29
     name rfingers
     direction -1 -4.48934e-011 -5.30819e-026   
     length 0.565971   
     axis 3.38708e-014 -90 -90   XYZ
    dof rx
    limits (0.0 90.0)
  end
  begin
     id 30
     name rthumb
     direction -0.707107 -6.34908e-011 0.707107   
     length 0.812624   
     axis -90 -45 -2.85299e-015   XYZ
    dof rx rz
    limits (-45.0 45.0)
           (-45.0 45.0)
  end
:hierarchy
  begin
    root lhipjoint rhipjoint lowerback
    lhipjoint lfemur
    lfemur ltibia
    ltibia lfoot
    lfoot ltoes
    rhipjoint rfemur
    rfemur rtibia
    rtibia rfoot
    rfoot rtoes
    lowerback upperback
    upperback thorax
    thorax lowerneck lclavicle rclavicle
    lowerneck upperneck
    upperneck head
    lclavicle lhumerus
    lhumerus lradius
    lradius lwrist
    lwrist lhand lthumb
    lhand lfingers
    rclavicle rhumerus
    rhumerus rradius
    rradius rwrist
    rwrist rhand rthumb
    rhand rfingers
  end

#!OML:ASF \\sashay\E\basketball\basketball\Project 1\Capture day 1\Session 1\Subject.ASF
:FULLY-SPECIFIED
:DEGREES
50
root -23.8304 12.755 1.43924 30.6307 85.8623 27.3363
lowerback 20.0493 -6.53719 3.73196
upperback 10.7273 -6.95862 2.38737
thorax 0.342689 -3.04721 1.79105
lowerneck -11.9064 5.43727 -3.1446
upperneck -17.8524 8.99902 3.31182
head -4.249 4.96674 1.61507
rclavicle -8.18993e-014 4.8901e-014
rhumerus -5.09004 -10.791 -81.5202
rradius 103.612
rwrist -23.439
rhand 8.10244 12.0842
rfingers 7.12502
rthumb 33.3244 -14.847
lclavicle -8.18993e-014 4.8901e-014
lhumerus -46.1585 -7.73639 91.8955
lradius 49.9122
lwrist 19.6415
lhand -34.3543 36.6735
lfingers 7.12502
lthumb -7.52157 66.5197
rfemur -25.5917 -9.055 -13.7234
rtibia 60.7229
rfoot -19.7345 -18.7573
rtoes -55.9208
lfemur -19.133 23.4888 -5.88239
ltibia 96.7119
lfoot -7.39601 -7.08967
ltoes -32.9945
51
root -23.5893 12.7626 1.36824 38.3946 87.0266 34.303
lowerback 21.0836 -6.31007 3.51532
upperback 10.4181 -6.59608 2.66577
thorax -0.451568 -2.8814 2.24433
lowerneck -11.8653 4.78646 -3.53746
upperneck -18.5178 8.30414 4.08232
head -4.00608 4.61687 1.81108
rclavicle 3.53837e-014 -1.59028e-015
rhumerus -5.01945 -8.4346 -82.5834
rradius 105.902
rwrist -18.9194
rhand 7.51946 11.7916
rfingers 7.12502
rthumb 32.77 -15.2569
lclavicle 3.53837e-014 -1.59028e-015
lhumerus -50.6232 -6.99416 91.7322
lradius 52.3755
lwrist 22.1557
lhand -35.3044 36.6974
lfingers 7.12502
lthumb -8.43858 66.5088
rfemur -23.4589 -9.77414 -13.8392
rtibia 58.9563
rfoot -19.3223 -19.6344
rtoes -56.001
lfemur -22.8432 24.3336 -5.81617
ltibia 98.2625
lfoot -7.55284 -5.35821
ltoes -31.6959
52
root -23.324 12.7833 1.28103 44.2245 88.2444 39.4301
lowerback 22.4143 -6.65945 0.934287
upperback 9.31581 -7.35344 4.92396
thorax -1.63572 -3.40528 6.45628
lowerneck -8.30129 5.3555 -8.88201
upperneck -19.5601 9.32745 5.0542
head -5.21906 5.32695 2.80397
rclavicle 3.97569e-014 -1.35174e-014
rhumerus -5.30119 -0.800762 -80.8788
rradius 107.741
rwrist -15.1648
rhand 6.10596 11.5456
rfingers 7.12502
rthumb 31.4243 -15.7741
lclavicle 3.97569e-014 -1.35174e-014
lhumerus -56.1859 0.283813 93.1019
lradius 55.2562
lwrist 22.4654
lhand -35.3209 35.4356
lfingers 7.12502
lthumb -8.45447 65.2464
rfemur -21.0509 -10.0996 -13.5312
rtibia 56.8055
rfoot -18.3936 -20.7429
rtoes -56.0006
lfemur -26.4782 25.5809 -5.31793
ltibia 100.042
lfoot -8.30914 -4.21157
ltoes -30.6815
53
root -23.0399 12.8126 1.18263 71.1334 89.4475 65.694
lowerback 22.0247 -5.66966 3.12073
upperback 10.0661 -5.69099 3.7569
thorax -1.15278 -2.46327 3.52843
lowerneck -9.55702 3.47056 -7.05181
upperneck -19.8359 7.03027 6.20565
head -4.88642 4.09519 2.98657
rclavicle 5.00937e-014 -8.0309e-014
rhumerus -5.33431 -2.66662 -83.1053
rradius 109.934
rwrist -9.9878
rhand 3.84626 11.6015
rfingers 7.12502
rthumb 29.2689 -16.1157
lclavicle 5.00937e-014 -8.0309e-014
lhumerus -58.5073 -3.38432 91.0264
lradius 58.0001
lwrist 22.8026
lhand -34.7453 34.5584
lfingers 7.12502
lthumb -7.89896 64.3908
rfemur -18.3784 -10.2669 -13.1089
rtibia 54.3093
rfoot -17.0431 -21.8848
rtoes -55.9504
lfemur -30.0005 26.8498 -4.96351
ltibia 101.651
lfoot -10.2844 -3.86849
ltoes -30.1225
54
root -22.7631 12.8443 1.08746 5.00119 91.2642 -1.02238
lowerback 22.0018 -4.86754 3.7755
upperback 10.2819 -4.51522 3.57452
thorax -1.01845 -1.83734 2.69166
lowerneck -8.98451 2.101 -6.46176
upperneck -20.505 5.25882 6.89103
head -5.04922 3.15699 3.13626
rclavicle -5.60573e-014 2.78299e-014
rhumerus -5.97528 -2.1969 -83.801
rradius 111.651
rwrist -5.00367
rhand 0.882528 12.0686
rfingers 7.12502
rthumb 26.4354 -16.108
lclavicle -5.60573e-014 2.78299e-014
lhumerus -60.8781 -4.17354 89.5346
lradius 60.8142
lwrist 22.0791
lhand -34.0157 33.6102
lfingers 7.12502
lthumb -7.19469 63.4679
rfemur -15.2964 -10.4695 -12.7231
rtibia 51.4357
rfoot -15.7285 -22.7562
rtoes -55.9524
lfemur -33.7029 27.5579 -5.10809
ltibia 102.756
lfoot -12.0649 -2.85405
ltoes -28.1299
55
root -22.4761 12.8834 0.983689 16.6658 92.9066 10.0945
lowerback 22.2544 -4.0543 3.32767
upperback 10.152 -3.46568 4.44458
thorax -1.21864 -1.34326 3.66085
lowerneck -8.22115 0.924817 -7.88564
upperneck -20.5472 3.75929 7.80162
head -5.10408 2.45136 3.69599
rclavicle 2.54444e-014 2.14687e-014
rhumerus -7.25767 -0.130979 -82.709
rradius 112.994
rwrist -0.808668
rhand -2.4583 12.8919
rfingers 7.12502
rthumb 23.2338 -15.7266
lclavicle 2.54444e-014 2.14687e-014
lhumerus -62.9869 -2.96971 89.2706
lradius 63.2321
lwrist 20.9126
lhand -33.3507 30.9795
lfingers 7.12502
lthumb -6.55282 60.8581
rfemur -11.9097 -10.3991 -12.1945
rtibia 48.2086
rfoot -15.213 -22.9257
rtoes -56.1388
lfemur -37.4471 27.954 -5.4525
ltibia 103.38
lfoot -12.9564 -1.34771
ltoes -24.4278
56
root -22.1814 12.9229 0.876805 20.6678 94.8853 13.5575
lowerback 22.1367 -3.17117 3.86708
upperback 10.2933 -2.18132 4.7603
thorax -1.06338 -0.677051 3.3954
lowerneck -8.21313 -0.667573 -8.59968
upperneck -20.381 1.79079 9.21452
head -4.88157 1.4679 4.31512
rclavicle -3.65764e-014 7.55382e-014
rhumerus -8.6115 0.407854 -82.3651
rradius 113.752
rwrist 3.00966
rhand -6.45218 14.4694
rfingers 7.12502
rthumb 19.3976 -14.583
lclavicle -3.65764e-014 7.55382e-014
lhumerus -63.7252 -3.40956 88.5437
lradius 65.7819
lwrist 20.3461
lhand -32.3784 29.9252
lfingers 7.12502
lthumb -5.61405 59.8309
rfemur -8.18266 -10.1352 -11.3969
rtibia 44.7383
rfoot -14.3974 -23.1714
rtoes -56.2976
lfemur -41.371 28.0085 -5.82711
ltibia 103.746
lfoot -13.6954 -0.00812078
ltoes -23.0962
57
root -21.8829 12.9607 0.774193 23.195 97.0356 15.592
lowerback 22.0774 -2.35793 4.57443
upperback 10.3902 -0.952975 5.0098
thorax -0.973403 -0.0309119 2.98324
lowerneck -8.27971 -2.34153 -9.33929
upperneck -20.1733 -0.257483 10.8991
head -4.57543 0.434389 5.01028
rclavicle 3.10104e-014 -1.11319e-014
rhumerus -9.53693 0.781523 -82.4291
rradius 113.026
rwrist 6.20049
rhand -11.5622 17.1316
rfingers 7.12502
rthumb 14.4788 -12.3433
lclavicle 3.10104e-014 -1.11319e-014
lhumerus -63.5955 -3.91873 87.7947
lradius 68.0423
lwrist 20.6029
lhand -31.3604 26.5625
lfingers 7.12502
lthumb -4.63116 56.4919
rfemur -4.38308 -9.60999 -10.2377
rtibia 41.1255
rfoot -12.2426 -23.9346
rtoes -56.3835
lfemur -45.3418 27.9031 -6.17535
ltibia 103.821
lfoot -14.8337 0.795673
ltoes -24.4738
58
root -21.5861 13.0032 0.677385 25.3588 99.3301 17.2474
lowerback 22.1958 -1.64187 5.29515
upperback 10.3206 0.168413 5.2671
thorax -1.12803 0.554097 2.60053
lowerneck -8.23234 -3.90994 -10.103
upperneck -19.9391 -2.17282 12.7194
head -4.23667 -0.545121 5.73017
rclavicle 2.38542e-014 8.74653e-014
rhumerus -10.2844 1.16782 -82.7063
rradius 110.962
rwrist 8.43026
rhand -17.4223 20.9322
rfingers 7.12502
rthumb 8.82784 -8.86315
lclavicle 2.38542e-014 8.74653e-014
lhumerus -62.7952 -4.58459 87.4788
lradius 70.9392
lwrist 21.2653
lhand -31.3596 28.4227
lfingers 7.12502
lthumb -4.63035 58.3521
rfemur -0.749583 -8.73033 -8.61707
rtibia 37.5249
rfoot -9.49902 -24.4617
rtoes -56.4615
lfemur -49.4136 27.6623 -6.53484
ltibia 103.493
lfoot -15.8705 0.814213
ltoes -24.8437
59
root -21.2898 13.048 0.583784 26.6685 101.652 17.9889
lowerback 22.1804 -0.947445 5.71921
upperback 10.3019 1.19959 5.61528
thorax -1.14822 1.08491 2.50211
lowerneck -8.1654 -5.31925 -11.0772
upperneck -19.7559 -3.8716 14.5521
head -3.88546 -1.4031 6.47085
rclavicle -3.97569e-015 1.27222e-014
rhumerus -10.8477 1.49927 -82.7931
rradius 108.098
rwrist 9.97631
rhand -22.6601 25.353
rfingers 7.12502
rthumb 3.77139 -4.59334
lclavicle -3.97569e-015 1.27222e-014
lhumerus -60.8228 -5.18121 87.6944
lradius 73.1447
lwrist 21.7551
lhand -31.458 28.1935
lfingers 7.12502
lthumb -4.72537 58.1208
rfemur 2.77662 -7.61167 -6.76029
rtibia 33.9945
rfoot -7.14895 -24.6493
rtoes -56.6499
lfemur -53.5688 27.2961 -7.09065
ltibia 102.78
lfoot -15.9172 0.811396
ltoes -23.1003
60
root -20.9867 13.0992 0.48512 27.2696 103.891 17.9186
lowerback 22.2793 -0.23543 5.88685
upperback 10.0727 2.19913 5.86582
thorax -1.45774 1.57567 2.44291
lowerneck -7.80389 -6.58172 -11.9438
upperneck -19.5375 -5.43461 16.4196
head -3.53898 -2.22128 7.19128
rclavicle 3.18055e-015 -3.18055e-015
rhumerus -11.4209 1.60976 -82.9041
rradius 104.468
rwrist 11.4848
rhand -26.1576 29.8305
rfingers 7.12502
rthumb 0.393521 -0.14885
lclavicle 3.18055e-015 -3.18055e-015
lhumerus -58.3682 -6.13847 88.3769
lradius 75.0621
lwrist 21.5001
lhand -31.8146 28.3275
lfingers 7.12502
lthumb -5.06973 58.2468
rfemur 6.15017 -6.35119 -4.88728
rtibia 30.5345
rfoot -6.85679 -24.463
rtoes -56.7199
lfemur -57.7194 26.7567 -8.00656
ltibia 101.629
lfoot -15.2141 1.20764
ltoes -22.0038
61
root -20.6644 13.1598 0.377927 27.4142 106.156 17.2598
lowerback 22.2357 0.342132 6.11235
upperback 9.79972 2.99115 5.7964
thorax -1.72306 1.96255 2.05089
lowerneck -7.41179 -7.66056 -12.162
upperneck -19.782 -6.72745 18.0912
head -3.36838 -2.93072 7.74869
rclavicle 3.97569e-015 -3.49861e-014
rhumerus -11.4592 1.48774 -83.4062
rradius 99.9823
rwrist 13.6889
rhand -27.8679 33.2238
rfingers 7.12502
rthumb -1.25831 3.24781
lclavicle 3.97569e-015 -3.49861e-014
lhumerus -55.4474 -7.6668 89.0761
lradius 76.8264
lwrist 20.5331
lhand -32.0136 28.7854
lfingers 7.12502
lthumb -5.26189 58.7001
rfemur 9.38023 -5.048 -3.02777
rtibia 27.1368
rfoot -6.48164 -24.2325
rtoes -55.9057
lfemur -61.6319 25.9828 -9.16898
ltibia 100.011
lfoot -15.188 0.999255
ltoes -24.0779
62
root -20.3263 13.2244 0.27021 27.4235 108.178 16.7226
lowerback 22.4328 0.84577 6.21702
upperback 9.70652 3.67496 5.49637
thorax -1.89443 2.30369 1.50108
lowerneck -7.04132 -8.8032 -12.1101
upperneck -20.6464 -7.95664 20.1145
head -3.34455 -3.63244 8.39852
rclavicle -9.70069e-014 -6.36111e-014
rhumerus -10.7195 1.31094 -84.2158
rradius 94.7432
rwrist 17.0343
rhand -28.481 34.378
rfingers 7.12502
rthumb -1.85044 4.40625
lclavicle -9.70069e-014 -6.36111e-014
lhumerus -51.9097 -9.48446 89.6901
lradius 78.2769
lwrist 19.5936
lhand -31.7072 28.5935
lfingers 7.12502
lthumb -4.96599 58.5153
rfemur 12.6476 -3.61913 -1.20374
rtibia 23.851
rfoot -3.74934 -24.2165
rtoes -54.9192
lfemur -64.6407 25.3821 -10.2028
ltibia 98.0469
lfoot -15.7236 -0.166198
ltoes -26.779
